<svg width="20" height="20" viewBox="0 0 20 20" xmlns="http://www.w3.org/2000/svg">
<path fill-rule="evenodd" d="M5.73248 2.68245C8.54582 2.36802 11.4542 2.36802 14.2675 2.68245C15.8375 2.85792 17.1041 4.09488 17.2885 5.67107C17.6249 8.54723 17.6249 11.4528 17.2885 14.3289C17.1041 15.9051 15.8375 17.1421 14.2675 17.3176C11.4542 17.632 8.54582 17.632 5.73248 17.3176C4.16248 17.1421 2.89587 15.9051 2.71152 14.3289C2.37513 11.4528 2.37513 8.54723 2.71152 5.67107C2.89587 4.09488 4.16248 2.85792 5.73248 2.68245ZM10 5.42341C10.3797 5.42341 10.6875 5.73122 10.6875 6.11091V9.31251H13.8891C14.2688 9.31251 14.5766 9.62031 14.5766 10C14.5766 10.3797 14.2688 10.6875 13.8891 10.6875H10.6875V13.8891C10.6875 14.2688 10.3797 14.5766 10 14.5766C9.62032 14.5766 9.31252 14.2688 9.31252 13.8891V10.6875H6.11096C5.73126 10.6875 5.42346 10.3797 5.42346 10C5.42346 9.62031 5.73126 9.31251 6.11096 9.31251H9.31252V6.11091C9.31252 5.73122 9.62032 5.42341 10 5.42341Z"/>
</svg>
