<svg width="20" height="20" viewBox="0 0 20 20" xmlns="http://www.w3.org/2000/svg">
<path  d="M15.2071 6.20711L6.20711 15.2071C5.81658 15.5976 5.18342 15.5976 4.79289 15.2071C4.40237 14.8166 4.40237 14.1834 4.79289 13.7929L13.7929 4.79289C14.1834 4.40237 14.8166 4.40237 15.2071 4.7929C15.5976 5.18342 15.5976 5.81658 15.2071 6.20711Z" />
<path  d="M15.2071 15.2071C15.5976 14.8166 15.5976 14.1834 15.2071 13.7929L6.20711 4.79289C5.81658 4.40237 5.18342 4.40237 4.7929 4.79289C4.40237 5.18342 4.40237 5.81658 4.7929 6.20711L13.7929 15.2071C14.1834 15.5976 14.8166 15.5976 15.2071 15.2071Z" />
</svg>
