<svg width="20" height="20" viewBox="0 0 20 20" xmlns="http://www.w3.org/2000/svg">
<path d="M12.9315 3.90514C13.3511 3.48566 13.92 3.25 14.5132 3.25C14.807 3.25 15.0978 3.30786 15.3692 3.42027C15.6406 3.53268 15.8871 3.69743 16.0949 3.90514C16.3026 4.11284 16.4673 4.35943 16.5798 4.63081C16.6922 4.90219 16.75 5.19305 16.75 5.48679C16.75 5.78053 16.6922 6.07139 16.5798 6.34277C16.4673 6.61415 16.3026 6.86074 16.0949 7.06844L15.2673 7.89599C14.9745 8.18889 14.4996 8.18889 14.2067 7.896L12.104 5.79335C11.8111 5.50046 11.8111 5.02559 12.104 4.7327L12.9315 3.90514ZM11.0433 6.85402C10.7505 6.56112 10.2756 6.56112 9.98269 6.85402L4.75814 12.0785C4.27754 12.5591 3.9366 13.1613 3.77176 13.8207L3.27241 15.8181C3.20851 16.0736 3.2834 16.344 3.46969 16.5303C3.65597 16.7166 3.92634 16.7915 4.18192 16.7276L6.1793 16.2282C6.83867 16.0634 7.44085 15.7225 7.92144 15.2419L13.146 10.0173C13.4389 9.72445 13.4389 9.24955 13.146 8.95667L11.0433 6.85402Z" />
<path d="M10 16C10 15.5858 10.3358 15.25 10.75 15.25H16C16.4142 15.25 16.75 15.5858 16.75 16C16.75 16.4142 16.4142 16.75 16 16.75H10.75C10.3358 16.75 10 16.4142 10 16Z" />
</svg>
