<svg width="20" height="20" viewBox="0 0 20 20" xmlns="http://www.w3.org/2000/svg">
<path d="M4.16669 13.5417C4.51187 13.5417 4.79169 13.8215 4.79169 14.1667V15.8333C4.79169 15.9484 4.88496 16.0417 5.00002 16.0417H15C15.1151 16.0417 15.2084 15.9484 15.2084 15.8333V14.1667C15.2084 13.8215 15.4882 13.5417 15.8334 13.5417C16.1785 13.5417 16.4584 13.8215 16.4584 14.1667V15.8333C16.4584 16.6388 15.8054 17.2917 15 17.2917H5.00002C4.19461 17.2917 3.54169 16.6388 3.54169 15.8333V14.1667C3.54169 13.8215 3.82151 13.5417 4.16669 13.5417Z" />
<path d="M8.94823 13.4394C8.51958 13.4394 8.162 13.1118 8.12457 12.6848C7.99654 11.2242 7.97395 9.7564 8.05693 8.29285C7.85111 8.28148 7.64537 8.2683 7.43973 8.25331L6.19844 8.16283C5.71985 8.12794 5.45232 7.5943 5.7107 7.18995C6.59574 5.80488 7.73613 4.60077 9.07109 3.64182L9.5684 3.28458C9.82632 3.09931 10.1737 3.09931 10.4316 3.28458L10.9289 3.64182C12.2639 4.60077 13.4043 5.80488 14.2893 7.18995C14.5477 7.5943 14.2802 8.12794 13.8016 8.16282L12.5603 8.25331C12.3546 8.2683 12.1489 8.28148 11.9431 8.29285C12.0261 9.7564 12.0035 11.2242 11.8755 12.6848C11.838 13.1118 11.4804 13.4394 11.0518 13.4394H8.94823Z" />
</svg>
