<svg width="18" height="18" viewBox="0 0 18 18" xmlns="http://www.w3.org/2000/svg">
<path d="M17 9V8.55176L16.9991 8.55078L16.9981 8.54883C16.9981 8.54883 16.9963 8.54589 16.9953 8.54395C16.9933 8.53966 16.9902 8.53398 16.987 8.52734C16.9804 8.51409 16.9722 8.49579 16.9609 8.47363C16.9382 8.42889 16.9053 8.36631 16.8632 8.28906C16.7791 8.1347 16.6561 7.91961 16.4937 7.66406C16.1701 7.15466 15.6846 6.47518 15.0344 5.79297C13.7393 4.43397 11.7244 3 9 3C6.2756 3 4.26069 4.43397 2.96557 5.79297C2.31542 6.47518 1.82992 7.15466 1.50628 7.66406C1.34393 7.91961 1.22087 8.1347 1.13681 8.28906C1.09474 8.36631 1.06183 8.42889 1.03909 8.47363C1.02783 8.49579 1.01955 8.51409 1.01303 8.52734C1.00976 8.53398 1.00673 8.53966 1.00465 8.54395C1.00371 8.54589 1.00186 8.54883 1.00186 8.54883L1.00093 8.55078L1 8.55176L1.00471 9C1.00471 9 2.69771 9.44358 2.70405 9.44727L2.70591 9.44434C2.70865 9.43877 2.71449 9.4283 2.72173 9.41406C2.73623 9.38554 2.75933 9.34039 2.79153 9.28125C2.85638 9.16218 2.95668 8.98664 3.09214 8.77344C3.36412 8.34534 3.77206 7.77482 4.31317 7.20703C5.40055 6.06603 6.95939 5 9 5C11.0406 5 12.5995 6.06603 13.6868 7.20703C14.2279 7.77482 14.6359 8.34534 14.9079 8.77344C15.0433 8.98664 15.1436 9.16218 15.2085 9.28125C15.2407 9.34039 15.2638 9.38554 15.2783 9.41406C15.2855 9.4283 15.2914 9.43877 15.2941 9.44434L17 9Z" />
<path d="M17 9V9.44824L16.9991 9.44922L16.9981 9.45117C16.9981 9.45117 16.9963 9.45411 16.9953 9.45605C16.9933 9.46034 16.9902 9.46602 16.987 9.47266C16.9804 9.48591 16.9722 9.50421 16.9609 9.52637C16.9382 9.57111 16.9053 9.63369 16.8632 9.71094C16.7791 9.8653 16.6561 10.0804 16.4937 10.3359C16.1701 10.8453 15.6846 11.5248 15.0344 12.207C13.7393 13.566 11.7244 15 9 15C6.2756 15 4.26069 13.566 2.96557 12.207C2.31542 11.5248 1.82992 10.8453 1.50628 10.3359C1.34393 10.0804 1.22087 9.8653 1.13681 9.71094C1.09474 9.63369 1.06183 9.57111 1.03909 9.52637C1.02783 9.50421 1.01955 9.48591 1.01303 9.47266C1.00976 9.46602 1.00673 9.46034 1.00465 9.45605C1.00371 9.45411 1.00186 9.45117 1.00186 9.45117L1.00093 9.44922L1 9.44824L1.00471 9C1.00471 9 2.69771 8.55642 2.70405 8.55273L2.70591 8.55566C2.70865 8.56123 2.71449 8.5717 2.72173 8.58594C2.73623 8.61446 2.75933 8.65961 2.79153 8.71875C2.85638 8.83782 2.95668 9.01336 3.09214 9.22656C3.36412 9.65466 3.77206 10.2252 4.31317 10.793C5.40055 11.934 6.95939 13 9 13C11.0406 13 12.5995 11.934 13.6868 10.793C14.2279 10.2252 14.6359 9.65466 14.9079 9.22656C15.0433 9.01336 15.1436 8.83782 15.2085 8.71875C15.2407 8.65961 15.2638 8.61446 15.2783 8.58594C15.2855 8.5717 15.2914 8.56123 15.2941 8.55566L15.295 8.55273L17 9Z" />
<path d="M10 9C10 8.44772 9.55228 8 9 8C8.44772 8 8 8.44772 8 9C8 9.55228 8.44772 10 9 10V11.5C7.61929 11.5 6.5 10.3807 6.5 9C6.5 7.61929 7.61929 6.5 9 6.5C10.3807 6.5 11.5 7.61929 11.5 9C11.5 10.3807 10.3807 11.5 9 11.5V10C9.55228 10 10 9.55228 10 9Z" />
</svg>
