<svg width="16" height="16" viewBox="0 0 16 16" xmlns="http://www.w3.org/2000/svg">
    <path fill-rule="evenodd" d="M14 1H2C1.44772 1 1 1.44772 1 2V14C1 14.5523 1.44772 15 2 15H14C14.5523 15 15 14.5523 15 14V2C15 1.44772 14.5523 1 14 1ZM2 0C0.895431 0 0 0.895431 0 2V14C0 15.1046 0.895431 16 2 16H14C15.1046 16 16 15.1046 16 14V2C16 0.895431 15.1046 0 14 0H2Z"/>
    <path d="M8.45117 9.43945H7.05078C7.05469 9.08398 7.08398 8.7793 7.13867 8.52539C7.19727 8.27148 7.29297 8.04297 7.42578 7.83984C7.55859 7.63281 7.73828 7.42188 7.96484 7.20703C8.14453 7.03906 8.30469 6.88086 8.44531 6.73242C8.58984 6.58008 8.70312 6.42188 8.78516 6.25781C8.86719 6.08984 8.9082 5.90039 8.9082 5.68945C8.9082 5.45117 8.86914 5.25195 8.79102 5.0918C8.7168 4.93164 8.60547 4.81055 8.45703 4.72852C8.3125 4.64258 8.13086 4.59961 7.91211 4.59961C7.73242 4.59961 7.5625 4.63672 7.40234 4.71094C7.24219 4.78516 7.11328 4.90039 7.01562 5.05664C6.91797 5.20898 6.86523 5.4082 6.85742 5.6543H5.30469C5.31641 5.14258 5.4375 4.7168 5.66797 4.37695C5.89844 4.0332 6.20898 3.77734 6.59961 3.60938C6.99023 3.4375 7.42773 3.35156 7.91211 3.35156C8.44727 3.35156 8.9043 3.44141 9.2832 3.62109C9.66602 3.79688 9.95703 4.05469 10.1562 4.39453C10.3594 4.73438 10.4609 5.14453 10.4609 5.625C10.4609 5.96875 10.3945 6.27734 10.2617 6.55078C10.1289 6.82031 9.95312 7.07227 9.73438 7.30664C9.51562 7.54102 9.2793 7.77734 9.02539 8.01562C8.80273 8.21484 8.65234 8.42773 8.57422 8.6543C8.49609 8.88086 8.45508 9.14258 8.45117 9.43945ZM6.9043 11.2617C6.9043 11.0273 6.98242 10.832 7.13867 10.6758C7.29883 10.5195 7.51367 10.4414 7.7832 10.4414C8.05273 10.4414 8.26562 10.5195 8.42188 10.6758C8.58203 10.832 8.66211 11.0273 8.66211 11.2617C8.66211 11.4883 8.58203 11.6797 8.42188 11.8359C8.26562 11.9922 8.05273 12.0703 7.7832 12.0703C7.51367 12.0703 7.29883 11.9922 7.13867 11.8359C6.98242 11.6797 6.9043 11.4883 6.9043 11.2617Z" />
</svg>
