<svg width="20" height="20" viewBox="0 0 20 20" xmlns="http://www.w3.org/2000/svg">
<path fill-rule="evenodd" d="M4.16669 13.5417C4.51187 13.5417 4.79169 13.8215 4.79169 14.1667V15.8333C4.79169 15.9484 4.88496 16.0417 5.00002 16.0417H15C15.1151 16.0417 15.2084 15.9484 15.2084 15.8333V14.1667C15.2084 13.8215 15.4882 13.5417 15.8334 13.5417C16.1785 13.5417 16.4584 13.8215 16.4584 14.1667V15.8333C16.4584 16.6387 15.8054 17.2917 15 17.2917H5.00002C4.19461 17.2917 3.54169 16.6387 3.54169 15.8333V14.1667C3.54169 13.8215 3.82151 13.5417 4.16669 13.5417Z" />
<path d="M8.94831 3.125C8.51965 3.125 8.16208 3.4526 8.12464 3.87962C7.99661 5.34022 7.97403 6.80799 8.057 8.27154C7.85118 8.28291 7.64544 8.29609 7.43979 8.31108L6.19854 8.40156C5.71996 8.43645 5.45242 8.97008 5.7108 9.37444C6.59583 10.7595 7.73622 11.9636 9.07117 12.9226L9.56845 13.2798C9.82637 13.4651 10.1738 13.4651 10.4317 13.2798L10.929 12.9226C12.2639 11.9636 13.4043 10.7595 14.2893 9.37444C14.5477 8.97008 14.2802 8.43645 13.8016 8.40156L12.5603 8.31108C12.3547 8.29609 12.1489 8.28291 11.9431 8.27154C12.0261 6.80799 12.0035 5.34022 11.8755 3.87962C11.8381 3.4526 11.4805 3.125 11.0518 3.125H8.94831Z"/>
</svg>
