<svg width="20" height="20" viewBox="0 0 20 20" xmlns="http://www.w3.org/2000/svg">
<path fill-rule="evenodd" d="M13.2297 7.25052C13.5209 7.50012 13.5546 7.93852 13.305 8.22972L9.97167 12.1186C9.84578 12.2655 9.66434 12.3532 9.47105 12.3606C9.27776 12.368 9.09013 12.2945 8.95335 12.1577L7.28674 10.491C7.01555 10.2198 7.01556 9.78014 7.28676 9.50894C7.55796 9.23775 7.99766 9.23776 8.26885 9.50897L9.40519 10.6454L12.2505 7.32584C12.5001 7.03464 12.9385 7.00092 13.2297 7.25052Z" />
<path fill-rule="evenodd" d="M14 4.5H6C5.17157 4.5 4.5 5.17157 4.5 6V14C4.5 14.8284 5.17157 15.5 6 15.5H14C14.8284 15.5 15.5 14.8284 15.5 14V6C15.5 5.17157 14.8284 4.5 14 4.5ZM6 3C4.34315 3 3 4.34315 3 6V14C3 15.6569 4.34315 17 6 17H14C15.6569 17 17 15.6569 17 14V6C17 4.34315 15.6569 3 14 3H6Z" />
</svg>
