<svg width="18" height="18" viewBox="0 0 18 18" xmlns="http://www.w3.org/2000/svg">
    <path d="M1 9.00001C1 8.07201 1.18133 7.18667 1.544 6.34401C1.90667 5.50134 2.392 4.77067 3 4.15201C3.608 3.53334 4.33867 3.04801 5.192 2.69601C6.04533 2.34401 6.936 2.16267 7.864 2.15201C8.792 2.15201 9.67733 2.33334 10.52 2.69601C11.3627 3.05867 12.0933 3.54401 12.712 4.15201C13.3307 4.76001 13.816 5.49067 14.168 6.34401C14.52 7.19734 14.7013 8.08267 14.712 9.00001H15.864C16.1093 9.00001 16.3227 9.06934 16.504 9.20801C16.6853 9.34667 16.8187 9.51734 16.904 9.72001C16.9893 9.92268 17.016 10.136 16.984 10.36C16.952 10.584 16.8453 10.7813 16.664 10.952L14.376 13.24C14.152 13.464 13.8853 13.576 13.576 13.576C13.2667 13.576 12.9947 13.464 12.76 13.24L10.472 10.952C10.3013 10.7813 10.2 10.584 10.168 10.36C10.136 10.136 10.1573 9.92268 10.232 9.72001C10.3067 9.51734 10.44 9.34667 10.632 9.20801C10.824 9.06934 11.0427 9.00001 11.288 9.00001H12.424C12.424 8.17867 12.2213 7.41601 11.816 6.71201C11.4107 6.00801 10.856 5.45334 10.152 5.04801C9.448 4.64267 8.68533 4.44001 7.864 4.44001C7.04267 4.44001 6.27467 4.64267 5.56 5.04801C4.84533 5.45334 4.29067 6.00801 3.896 6.71201C3.50133 7.41601 3.29867 8.17867 3.288 9.00001C3.27733 9.82134 3.48 10.5893 3.896 11.304C4.312 12.0187 4.86667 12.5733 5.56 12.968C6.25333 13.3627 7.02133 13.5653 7.864 13.576C8.44 13.576 9 13.4693 9.544 13.256L11.256 14.952C10.2107 15.56 9.08 15.864 7.864 15.864C6.92533 15.864 6.03467 15.6827 5.192 15.32C4.34933 14.9573 3.61867 14.472 3 13.864C2.38133 13.256 1.896 12.5253 1.544 11.672C1.192 10.8187 1.01067 9.92801 1 9.00001Z" />
</svg>
