<svg width="20" height="20" viewBox="0 0 20 20" xmlns="http://www.w3.org/2000/svg">
<path d="M7.70835 2.5C7.70835 2.15482 7.98818 1.875 8.33335 1.875H11.6667C12.0119 1.875 12.2917 2.15482 12.2917 2.5V3.125H15.8334C16.1785 3.125 16.4584 3.40482 16.4584 3.75C16.4584 4.09518 16.1785 4.375 15.8334 4.375H4.16669C3.82151 4.375 3.54169 4.09518 3.54169 3.75C3.54169 3.40482 3.82151 3.125 4.16669 3.125H7.70835V2.5Z" />
<path fill-rule="evenodd" d="M5.19993 6.62065C5.22338 6.40964 5.40174 6.25 5.61405 6.25H14.386C14.5983 6.25 14.7767 6.40964 14.8001 6.62065L14.9669 8.12178C15.2675 10.8276 15.2675 13.5584 14.9669 16.2642L14.9505 16.412C14.841 17.3975 14.0772 18.1833 13.0952 18.3207C11.0418 18.6082 8.95827 18.6082 6.9048 18.3207C5.92283 18.1833 5.15906 17.3975 5.04956 16.412L5.03314 16.2642C4.7325 13.5584 4.7325 10.8276 5.03314 8.12178L5.19993 6.62065ZM12.1086 10.3914C12.3527 10.6355 12.3527 11.0312 12.1086 11.2753L10.8839 12.5L12.1086 13.7247C12.3527 13.9688 12.3527 14.3645 12.1086 14.6086C11.8646 14.8527 11.4688 14.8527 11.2247 14.6086L10 13.3839L8.7753 14.6086C8.53123 14.8527 8.1355 14.8527 7.89142 14.6086C7.64734 14.3645 7.64734 13.9688 7.89142 13.7247L9.11614 12.5L7.89141 11.2753C7.64733 11.0312 7.64733 10.6355 7.89141 10.3914C8.13549 10.1473 8.53122 10.1473 8.7753 10.3914L10 11.6161L11.2248 10.3914C11.4688 10.1473 11.8646 10.1473 12.1086 10.3914Z"/>
</svg>
