<svg width="20" height="20" viewBox="0 0 20 20" xmlns="http://www.w3.org/2000/svg">
<path d="M3 7C3 4.64297 3 3.46447 3.73223 2.73223C4.46447 2 5.64297 2 8 2H13.2859C13.9672 2 14.3078 2 14.6141 2.12687C14.9204 2.25373 15.1612 2.49459 15.643 2.97631L17.0237 4.35703C17.5054 4.83874 17.7462 5.0796 17.8732 5.38588C18 5.69217 18 6.03279 18 6.71404V12C18 14.357 18 15.5355 17.2677 16.2677C16.7333 16.8022 15.9612 16.9466 14.6667 16.9856V14.5V14.4487C14.6667 13.9036 14.6667 13.4138 14.6135 13.0173C14.5552 12.5846 14.4202 12.1406 14.0565 11.7768C13.6927 11.4132 13.2487 11.2781 12.816 11.2198C12.4195 11.1666 11.9297 11.1666 11.3847 11.1667H11.3333H8.83333H8.78199C8.23689 11.1666 7.74713 11.1666 7.3507 11.2198C6.91791 11.2781 6.47389 11.4132 6.11019 11.7768C5.74649 12.1406 5.61138 12.5846 5.55319 13.0173C5.4999 13.4138 5.49994 13.9036 5.5 14.4487V14.5V16.9366C4.68742 16.8567 4.14047 16.676 3.73223 16.2677C3 15.5355 3 14.357 3 12V7ZM13 14.5V17H8C7.70413 17 7.42684 17 7.16667 16.9986V14.5C7.16667 13.8872 7.16843 13.5114 7.205 13.2394C7.23714 13.0004 7.28285 12.9605 7.28827 12.9557L7.2891 12.9549C7.29383 12.9495 7.33374 12.9038 7.57278 12.8717C7.84474 12.8351 8.22052 12.8333 8.83333 12.8333H11.3333C11.9462 12.8333 12.3219 12.8351 12.5939 12.8717C12.8329 12.9038 12.8728 12.9495 12.8776 12.9549L12.8784 12.9557C12.8838 12.9605 12.9295 13.0004 12.9617 13.2394C12.9983 13.5114 13 13.8872 13 14.5ZM6.33333 5.33333C5.8731 5.33333 5.5 5.70643 5.5 6.16667C5.5 6.6269 5.8731 7 6.33333 7H10.5C10.9602 7 11.3333 6.6269 11.3333 6.16667C11.3333 5.70643 10.9602 5.33333 10.5 5.33333H6.33333Z" />
</svg>
