<svg width="18" height="18" viewBox="0 0 18 18" xmlns="http://www.w3.org/2000/svg">
<path d="M12.2 9C12.2 8.5584 12.5584 8.2 13 8.2H13.728C13.3888 6.1944 11.8056 4.61108 9.8 4.27188V5C9.8 5.4416 9.4416 5.8 9 5.8C8.5584 5.8 8.2 5.4416 8.2 5V4.27188C6.1944 4.61108 4.6112 6.1944 4.272 8.2H5C5.4416 8.2 5.8 8.5584 5.8 9C5.8 9.4416 5.4416 9.8 5 9.8H4.272C4.6112 11.8056 6.1944 13.3889 8.2 13.7281V13C8.2 12.5584 8.5584 12.2 9 12.2C9.4416 12.2 9.8 12.5584 9.8 13V13.7281C11.8056 13.3889 13.3888 11.8056 13.728 9.8H13C12.5584 9.8 12.2 9.4416 12.2 9ZM17 9C17 9.4416 16.6416 9.8 16.2 9.8H15.3448C14.9832 12.6936 12.6936 14.9833 9.8 15.3449V16.2C9.8 16.6416 9.4416 17 9 17C8.5584 17 8.2 16.6416 8.2 16.2V15.3449C5.3064 14.9833 3.0168 12.6936 2.6552 9.8H1.8C1.3584 9.8 1 9.4416 1 9C1 8.5584 1.3584 8.2 1.8 8.2H2.6552C3.0168 5.3064 5.3064 3.01668 8.2 2.65508V1.8C8.2 1.3584 8.5584 1 9 1C9.4416 1 9.8 1.3584 9.8 1.8V2.65508C12.6936 3.01668 14.9832 5.3064 15.3448 8.2H16.2C16.6416 8.2 17 8.5584 17 9ZM11.4 9C11.4 9.4416 11.0416 9.8 10.6 9.8H9.8V10.6C9.8 11.0416 9.4416 11.4 9 11.4C8.5584 11.4 8.2 11.0416 8.2 10.6V9.8H7.4C6.9584 9.8 6.6 9.4416 6.6 9C6.6 8.5584 6.9584 8.2 7.4 8.2H8.2V7.4C8.2 6.9584 8.5584 6.6 9 6.6C9.4416 6.6 9.8 6.9584 9.8 7.4V8.2H10.6C11.0416 8.2 11.4 8.5584 11.4 9Z" />
</svg>
