<svg width="95" height="20" viewBox="0 0 95 20" fill="none" xmlns="http://www.w3.org/2000/svg">
<g clip-path="url(#clip0_2949_829)">
<path d="M12.8693 4.65324L12.8548 4.64477L12.8212 4.63458C12.8347 4.64592 12.8516 4.65248 12.8693 4.65324Z" fill="#727272"/>
<path d="M13.0781 6.08118L13.0605 6.0861L13.0781 6.08118Z" fill="#727272"/>
<path d="M12.8767 4.6507C12.874 4.65036 12.8713 4.64972 12.8687 4.6488C12.8686 4.65058 12.8686 4.65235 12.8687 4.65412C12.8716 4.65375 12.8744 4.65256 12.8767 4.6507Z" fill="#727272"/>
<path d="M12.8686 4.65302H12.8715V4.65125L12.8686 4.65302Z" fill="#727272"/>
<path d="M13.0637 6.07862L13.088 6.06543L13.097 6.06059L13.1052 6.05225C13.0898 6.05858 13.0757 6.06751 13.0637 6.07862Z" fill="#727272"/>
<path d="M12.9104 4.68354L12.8867 4.66203L12.8707 4.65369C12.8793 4.66823 12.8936 4.67894 12.9104 4.68354Z" fill="#727272"/>
<path d="M6.99487 18.5486C6.9761 18.5564 6.95965 18.5686 6.94702 18.5841L6.96186 18.5749C6.97193 18.5661 6.98619 18.5556 6.99487 18.5486Z" fill="#727272"/>
<path d="M10.4298 17.8989C10.4298 17.8785 10.4194 17.8822 10.422 17.9549C10.422 17.949 10.4245 17.943 10.4256 17.9374C10.427 17.9245 10.4282 17.9118 10.4298 17.8989Z" fill="#727272"/>
<path d="M10.0735 18.5486C10.0548 18.5564 10.0383 18.5686 10.0257 18.5841L10.0405 18.5749C10.0506 18.5661 10.0649 18.5556 10.0735 18.5486Z" fill="#727272"/>
<path d="M4.57583 18.703C4.56157 18.6911 4.54411 18.6833 4.52545 18.6804C4.54056 18.6874 4.55567 18.6944 4.56574 18.6998L4.57583 18.703Z" fill="#727272"/>
<path d="M4.03161 18.2019C4.02939 18.1807 4.02257 18.1602 4.0116 18.1417C4.01938 18.161 4.02587 18.1807 4.03106 18.2009L4.03161 18.2019Z" fill="#727272"/>
<path d="M7.68789 9.23904C6.94061 9.54658 6.09254 9.89527 4.99344 9.89527C4.53364 9.8944 4.07607 9.83374 3.63318 9.71501L4.39336 17.2178C4.42025 17.5314 4.56887 17.8237 4.80966 18.0369C5.05045 18.25 5.36583 18.3683 5.69314 18.3683C5.69314 18.3683 6.771 18.4221 7.13065 18.4221C7.51774 18.4221 8.67843 18.3683 8.67843 18.3683C9.0057 18.3682 9.32101 18.2499 9.56173 18.0368C9.80248 17.8237 9.95103 17.5313 9.97794 17.2178L10.7921 8.92693C10.4283 8.80745 10.0611 8.72809 9.64712 8.72809C8.93117 8.7278 8.35431 8.96487 7.68789 9.23904Z" fill="#FFDD00"/>
<path d="M1.27997 6.03802L1.29412 6.0513L1.30334 6.05685C1.29624 6.04977 1.2884 6.04345 1.27997 6.03802Z" fill="#727272"/>
<path d="M14.3074 5.34556L14.1929 4.79049C14.0902 4.29246 13.8571 3.82188 13.3253 3.64186C13.1548 3.58429 12.9614 3.55954 12.8307 3.44035C12.7 3.32116 12.6614 3.13604 12.6312 2.96438C12.5752 2.64931 12.5226 2.33398 12.4652 2.01943C12.4157 1.74903 12.3765 1.44526 12.2474 1.19719C12.0795 0.864088 11.7311 0.669288 11.3846 0.540407C11.207 0.47669 11.0258 0.422791 10.8418 0.37897C9.97616 0.159417 9.06595 0.0786986 8.17536 0.0326891C7.10638 -0.0240151 6.03456 -0.00693097 4.96812 0.0838105C4.17437 0.153228 3.33835 0.237176 2.58405 0.501124C2.30837 0.597717 2.02428 0.713682 1.81464 0.918438C1.55743 1.17001 1.47346 1.55907 1.66126 1.8728C1.79477 2.09558 2.02092 2.25297 2.26078 2.35711C2.5732 2.49128 2.89949 2.59336 3.23424 2.66169C4.16626 2.85972 5.13159 2.93748 6.08376 2.97056C7.13911 3.0115 8.19616 2.97834 9.24649 2.87128C9.50622 2.84383 9.76549 2.81093 10.0243 2.77253C10.3291 2.7276 10.5247 2.34447 10.4349 2.07755C10.3274 1.75844 10.0386 1.63468 9.71194 1.68284C9.66379 1.6901 9.61594 1.69683 9.56779 1.70356L9.53309 1.7084C9.42243 1.72185 9.3118 1.73441 9.20115 1.74607C8.97257 1.76975 8.74344 1.78912 8.51375 1.80419C7.9993 1.83863 7.48347 1.8545 6.96793 1.85531C6.46132 1.85531 5.95447 1.84158 5.44898 1.80957C5.21835 1.79504 4.98829 1.77656 4.75877 1.75414C4.65438 1.74365 4.55027 1.73262 4.44613 1.72024L4.34705 1.70813L4.32552 1.70517L4.22279 1.69091C4.01288 1.66051 3.80296 1.62553 3.59528 1.58329C3.57434 1.57882 3.55558 1.56761 3.54214 1.55151C3.52872 1.53542 3.52138 1.5154 3.52138 1.49477C3.52138 1.47413 3.52872 1.45411 3.54214 1.43802C3.55558 1.42192 3.57434 1.41071 3.59528 1.40625H3.5992C3.77917 1.36938 3.96054 1.3379 4.14247 1.31046C4.20311 1.30131 4.26393 1.29234 4.32495 1.28355H4.32664C4.44055 1.27629 4.55501 1.25665 4.66838 1.24373C5.65461 1.14512 6.6467 1.11149 7.63769 1.1431C8.11882 1.15656 8.59968 1.18373 9.07855 1.23055C9.18155 1.24077 9.284 1.25154 9.38643 1.26364C9.42562 1.26822 9.46507 1.2736 9.50453 1.27817L9.58404 1.2892C9.81579 1.32239 10.0463 1.36266 10.2756 1.41001C10.6154 1.48104 11.0518 1.50418 11.2029 1.86203C11.251 1.97558 11.2729 2.10177 11.2995 2.22096L11.3333 2.37299C11.3342 2.37571 11.3349 2.37849 11.3353 2.38131C11.4153 2.74007 11.4955 3.09882 11.5757 3.45757C11.5816 3.48407 11.5817 3.51146 11.5761 3.53801C11.5705 3.56456 11.5593 3.58973 11.5431 3.61192C11.5269 3.63411 11.5061 3.65286 11.4821 3.66699C11.458 3.68112 11.4312 3.69034 11.4033 3.69406H11.401L11.3521 3.70053L11.3037 3.70673C11.1503 3.72591 10.9967 3.74386 10.843 3.76053C10.5401 3.79371 10.2368 3.82241 9.93305 3.84664C9.32944 3.89487 8.7246 3.92653 8.11855 3.9416C7.80973 3.94951 7.50101 3.95317 7.1924 3.95264C5.96397 3.9517 4.7366 3.88307 3.51634 3.74708C3.38425 3.732 3.25215 3.71586 3.12003 3.69945C3.22248 3.71209 3.04558 3.68977 3.00976 3.68493C2.92579 3.67363 2.84182 3.66186 2.75787 3.64968C2.47602 3.60905 2.19585 3.55899 1.91456 3.51514C1.5745 3.46134 1.24927 3.48824 0.941674 3.64968C0.689184 3.7825 0.484828 3.98618 0.355871 4.23354C0.223203 4.49722 0.183739 4.78429 0.124403 5.06762C0.0650671 5.35095 -0.0272959 5.65579 0.00768997 5.94664C0.0829797 6.57437 0.539476 7.08451 1.19609 7.1986C1.8138 7.30622 2.43486 7.39338 3.05761 7.46765C5.50392 7.75566 7.97533 7.79012 10.4293 7.57043C10.6291 7.55249 10.8287 7.53295 11.028 7.51179C11.0902 7.50519 11.1532 7.51209 11.2123 7.53196C11.2714 7.55181 11.3252 7.58412 11.3696 7.62653C11.414 7.66894 11.4481 7.72037 11.4691 7.77704C11.4902 7.83374 11.4978 7.89424 11.4915 7.95411L11.4293 8.53474C11.3041 9.70804 11.1789 10.8812 11.0537 12.0543C10.9231 13.2863 10.7916 14.5181 10.6593 15.7499C10.622 16.0968 10.5847 16.4436 10.5474 16.7903C10.5116 17.1318 10.5065 17.484 10.4391 17.8214C10.3327 18.352 9.95907 18.6778 9.41386 18.797C8.91437 18.9063 8.40409 18.9636 7.89184 18.9681C7.32393 18.9711 6.75633 18.9469 6.18844 18.9498C5.58221 18.9531 4.83967 18.8992 4.37169 18.4655C3.96054 18.0845 3.90373 17.488 3.84774 16.9722C3.77311 16.2894 3.69912 15.6066 3.62579 14.9239L3.21437 11.1277L2.94819 8.67144C2.9437 8.6308 2.93923 8.59071 2.93504 8.54981C2.90312 8.2568 2.68732 7.96999 2.34727 7.98478C2.05619 7.99715 1.72536 8.23501 1.75951 8.54981L1.95682 10.3708L2.36491 14.1377C2.48114 15.2076 2.59711 16.2778 2.7128 17.3481C2.7352 17.5531 2.75618 17.7587 2.7797 17.9637C2.90761 19.0841 3.79765 19.6879 4.89985 19.8579C5.54359 19.9575 6.20298 19.9779 6.85625 19.9881C7.69368 20.0011 8.5395 20.032 9.36321 19.8862C10.5838 19.6709 11.4996 18.8874 11.6303 17.672C11.6676 17.3212 11.7049 16.9703 11.7422 16.6192C11.8663 15.4583 11.9902 14.2973 12.1139 13.1362L12.5186 9.34245L12.7042 7.60379C12.7135 7.51759 12.7513 7.43652 12.8122 7.3726C12.8731 7.3087 12.9538 7.26532 13.0423 7.24889C13.3913 7.18353 13.725 7.07185 13.9732 6.81652C14.3684 6.40997 14.4471 5.87991 14.3074 5.34556ZM1.17818 5.72064C1.1835 5.7182 1.1737 5.76208 1.1695 5.78252C1.16866 5.75159 1.17034 5.72414 1.17818 5.72064ZM1.21205 5.97249C1.21484 5.9706 1.22324 5.98136 1.23192 5.99426C1.21876 5.98243 1.21037 5.97356 1.21177 5.97249H1.21205ZM1.24535 6.01472C1.25739 6.03437 1.26382 6.04675 1.24535 6.01472V6.01472ZM1.31224 6.06692H1.31392C1.31392 6.06881 1.317 6.07069 1.31812 6.07257C1.31627 6.07049 1.3142 6.06861 1.31197 6.06692H1.31224ZM13.0261 5.98889C12.9007 6.10351 12.7118 6.15678 12.5251 6.18342C10.4315 6.48208 8.30748 6.6333 6.19095 6.56657C4.67621 6.51678 3.17741 6.35507 1.67778 6.15141C1.53084 6.1315 1.37158 6.10565 1.27054 6.00153C1.08022 5.80513 1.1737 5.4096 1.22324 5.17229C1.26858 4.9549 1.35535 4.6651 1.62432 4.63417C2.04415 4.58681 2.53171 4.75713 2.94707 4.81768C3.44714 4.89104 3.94905 4.94977 4.45285 4.99391C6.60294 5.18223 8.78915 5.15292 10.9297 4.87739C11.3199 4.82699 11.7087 4.76843 12.096 4.70171C12.4411 4.64223 12.8237 4.53058 13.0322 4.87417C13.1753 5.10826 13.1943 5.42145 13.1722 5.68594C13.1654 5.80116 13.113 5.90955 13.0258 5.98889H13.0261Z" fill="#727272"/>
<path fill-rule="evenodd" clip-rule="evenodd" d="M25.7243 11.5807C25.6021 11.805 25.434 12.0003 25.2202 12.1661C25.0062 12.3319 24.7567 12.467 24.4714 12.571C24.1864 12.6752 23.8992 12.7451 23.6107 12.7808C23.322 12.8166 23.0417 12.8135 22.7703 12.771C22.4986 12.7288 22.2675 12.6426 22.0776 12.5124L22.2916 10.3756C22.4884 10.3106 22.7361 10.2439 23.0351 10.1756C23.3339 10.1074 23.6411 10.0585 23.9569 10.0293C24.2727 9.99995 24.5715 10.0034 24.8536 10.039C25.135 10.0748 25.3576 10.161 25.5205 10.2976C25.6087 10.3756 25.6837 10.4602 25.7448 10.5513C25.8058 10.6424 25.8432 10.7367 25.8569 10.8343C25.8906 11.1074 25.8466 11.3562 25.7243 11.5807ZM22.6174 7.02897C22.7601 6.94444 22.9315 6.86954 23.1318 6.80444C23.3321 6.73957 23.5376 6.69388 23.7482 6.6679C23.9585 6.64203 24.164 6.63857 24.3645 6.65811C24.5646 6.67767 24.7414 6.73127 24.8941 6.81903C25.047 6.90691 25.1607 7.03381 25.2352 7.19955C25.31 7.36555 25.3305 7.57537 25.2965 7.82899C25.2694 8.03064 25.186 8.20146 25.047 8.34122C24.9078 8.48122 24.7378 8.59819 24.5377 8.69252C24.3372 8.78698 24.1251 8.86174 23.9011 8.91681C23.6768 8.97228 23.461 9.013 23.2541 9.03887C23.047 9.06498 22.867 9.08133 22.7143 9.08764C22.5614 9.09421 22.4611 9.09743 22.4137 9.09743L22.6174 7.02897ZM26.8244 10.2C26.7157 9.97245 26.5699 9.77243 26.3865 9.59986C26.2032 9.42757 25.9856 9.30242 25.7345 9.22431C25.8432 9.13975 25.9501 9.00645 26.0554 8.82424C26.1606 8.64227 26.2506 8.44371 26.3254 8.22908C26.3999 8.01429 26.4509 7.79817 26.4781 7.58019C26.5052 7.36233 26.4949 7.17528 26.4478 7.01907C26.332 6.62891 26.1504 6.32314 25.9025 6.10194C25.6545 5.88087 25.366 5.72799 25.0368 5.64332C24.7073 5.55903 24.344 5.54095 23.9469 5.58972C23.5494 5.6385 23.1436 5.73443 22.7295 5.87754C22.7295 5.84509 22.7329 5.81092 22.7397 5.77515C22.7463 5.73951 22.7498 5.70201 22.7498 5.66288C22.7498 5.56534 22.6989 5.48091 22.5971 5.40926C22.4952 5.33769 22.378 5.2955 22.2457 5.28238C22.1132 5.2695 21.9841 5.29697 21.8585 5.36531C21.7328 5.43364 21.6462 5.55903 21.5988 5.74087C21.5444 6.32637 21.4901 6.93465 21.4358 7.56547C21.3814 8.19651 21.3237 8.83401 21.2626 9.47806C21.2015 10.122 21.1404 10.7611 21.0792 11.3952C21.0181 12.0295 20.957 12.6393 20.8959 13.2247C20.9163 13.4003 20.9672 13.537 21.0488 13.6345C21.1302 13.7322 21.2253 13.7907 21.334 13.8102C21.4425 13.8297 21.5564 13.8116 21.6752 13.7564C21.7939 13.7014 21.8976 13.6052 21.9859 13.4686C22.2575 13.6117 22.5631 13.7045 22.9027 13.7468C23.2423 13.789 23.5868 13.789 23.9366 13.7468C24.2862 13.7045 24.6309 13.6249 24.9705 13.5076C25.31 13.3907 25.619 13.2442 25.8974 13.0687C26.1759 12.893 26.4102 12.6929 26.6004 12.4686C26.7905 12.244 26.916 12.0018 26.9773 11.7417C27.0384 11.475 27.0553 11.2083 27.0281 10.9416C27.001 10.675 26.9331 10.4279 26.8244 10.2Z" fill="#A5A5A5"/>
<path fill-rule="evenodd" clip-rule="evenodd" d="M36.7619 15.3517C36.7246 15.5663 36.6717 15.7923 36.604 16.0299C36.5359 16.2672 36.4561 16.4836 36.3645 16.6788C36.2729 16.8738 36.1711 17.0314 36.0592 17.1519C35.9468 17.2722 35.8263 17.3227 35.6973 17.3032C35.5955 17.29 35.531 17.2282 35.5039 17.1178C35.4767 17.007 35.4767 16.8705 35.5039 16.708C35.531 16.5453 35.5836 16.3615 35.6618 16.1566C35.7397 15.9518 35.835 15.7484 35.9468 15.5469C36.0592 15.3451 36.1863 15.1517 36.329 14.9663C36.4716 14.781 36.6209 14.6264 36.7772 14.5029C36.8112 14.5419 36.8264 14.6394 36.823 14.7956C36.8194 14.9517 36.7991 15.1371 36.7619 15.3517ZM40.2151 11.1171C40.1235 11.0195 40.0114 10.9643 39.879 10.9512C39.7466 10.9382 39.6124 11.0098 39.4766 11.1659C39.3882 11.322 39.2763 11.4716 39.1405 11.6147C39.0044 11.7579 38.8636 11.8879 38.7175 12.005C38.5717 12.122 38.4325 12.223 38.3001 12.3074C38.1677 12.3921 38.064 12.4539 37.9893 12.4928C37.9621 12.2848 37.9469 12.0603 37.9435 11.8196C37.9398 11.5789 37.9451 11.3351 37.9587 11.0879C37.979 10.7366 38.0214 10.3822 38.0861 10.0243C38.1506 9.66658 38.244 9.31527 38.3662 8.97041C38.3662 8.78846 38.322 8.6404 38.2338 8.52653C38.1454 8.41275 38.0385 8.3411 37.9129 8.31188C37.7871 8.28266 37.6584 8.29889 37.5258 8.36064C37.3934 8.42255 37.2797 8.53481 37.1846 8.69722C37.1031 8.91199 37.0096 9.15262 36.9046 9.41926C36.7991 9.68601 36.6804 9.9576 36.548 10.234C36.4156 10.5107 36.2677 10.7789 36.1048 11.039C35.9418 11.2993 35.7636 11.5303 35.5699 11.7318C35.3765 11.9335 35.1659 12.0913 34.9385 12.205C34.7109 12.3189 34.465 12.3693 34.2 12.3563C34.0776 12.3238 33.9894 12.236 33.935 12.0928C33.8807 11.9498 33.8484 11.7708 33.8383 11.5562C33.8281 11.3415 33.8383 11.1057 33.8689 10.8487C33.8994 10.5919 33.9402 10.3365 33.991 10.0829C34.0421 9.82912 34.0981 9.58848 34.1592 9.36084C34.2203 9.13319 34.2779 8.94121 34.3324 8.78511C34.4139 8.59659 34.4139 8.43863 34.3324 8.31188C34.2508 8.185 34.1389 8.10058 33.9963 8.05812C33.8536 8.01591 33.7041 8.01764 33.548 8.06307C33.3917 8.10861 33.2796 8.20938 33.2119 8.36548C33.0964 8.63236 32.9911 8.93142 32.8961 9.26316C32.8008 9.59492 32.7245 9.93817 32.6668 10.2926C32.609 10.6472 32.5766 10.9985 32.57 11.3465C32.5695 11.3691 32.5707 11.3907 32.5707 11.4132C32.4226 11.7914 32.2813 12.0772 32.1473 12.2684C31.9741 12.5158 31.7788 12.6231 31.5617 12.5904C31.4664 12.5514 31.4037 12.4604 31.3732 12.3172C31.3425 12.1742 31.3322 11.9986 31.3424 11.7902C31.3529 11.5823 31.3782 11.3465 31.4188 11.0829C31.4598 10.8195 31.5106 10.5463 31.5717 10.2634C31.633 9.98025 31.6975 9.69593 31.7652 9.4096C31.8331 9.12342 31.8941 8.85343 31.9488 8.59968C31.942 8.37203 31.8723 8.19812 31.7399 8.07768C31.6075 7.95749 31.4222 7.91032 31.1848 7.93619C31.0218 8.0013 30.9011 8.08596 30.8229 8.18995C30.7447 8.29394 30.6821 8.42737 30.6347 8.58991C30.6073 8.67457 30.5665 8.84366 30.5123 9.09742C30.4579 9.35094 30.3883 9.6422 30.3036 9.97061C30.2186 10.2992 30.1185 10.6423 30.003 11C29.8875 11.3577 29.7585 11.6816 29.6161 11.9708C29.4732 12.2602 29.3171 12.4928 29.1474 12.6685C28.9776 12.844 28.7942 12.9157 28.5973 12.8831C28.4886 12.8636 28.4191 12.7563 28.3885 12.5612C28.358 12.366 28.3528 12.1255 28.3733 11.8391C28.3936 11.553 28.4343 11.239 28.4954 10.8976C28.5565 10.5561 28.6191 10.2325 28.6839 9.92667C28.7484 9.62104 28.8078 9.35094 28.8623 9.11685C28.9165 8.88266 28.9539 8.72656 28.9742 8.64857C28.9742 8.45992 28.93 8.30879 28.8418 8.19477C28.7534 8.08114 28.6465 8.00947 28.5209 7.98014C28.3951 7.95091 28.2662 7.96715 28.1338 8.0289C28.0014 8.09081 27.8877 8.20307 27.7924 8.36548C27.7585 8.54112 27.7143 8.74452 27.66 8.97536C27.6056 9.20623 27.5532 9.44364 27.5023 9.68763C27.4513 9.93162 27.4037 10.1706 27.3597 10.4048C27.3155 10.639 27.2831 10.8439 27.2629 11.0195C27.2492 11.1561 27.2339 11.3237 27.217 11.522C27.2 11.7206 27.1915 11.9302 27.1915 12.1513C27.1915 12.3726 27.2084 12.5921 27.2426 12.81C27.2763 13.028 27.3376 13.228 27.4258 13.41C27.514 13.5922 27.6379 13.7417 27.7977 13.8588C27.9572 13.9759 28.1593 14.0409 28.4038 14.054C28.6549 14.0669 28.8739 14.0492 29.0608 14.0003C29.2476 13.9515 29.4172 13.875 29.5701 13.7709C29.723 13.6671 29.862 13.5434 29.9877 13.4002C30.1133 13.2572 30.2373 13.1011 30.3596 12.9319C30.4749 13.1792 30.6244 13.371 30.8079 13.5076C30.9911 13.6442 31.1848 13.7256 31.3885 13.7515C31.592 13.7774 31.7993 13.75 32.0099 13.6685C32.2202 13.5873 32.4103 13.4491 32.5803 13.2539C32.6921 13.1342 32.7976 12.9981 32.8965 12.8477C32.9385 12.9182 32.9831 12.9861 33.0335 13.0489C33.2001 13.2572 33.4259 13.4002 33.7112 13.4783C34.0165 13.5564 34.3153 13.5695 34.6074 13.5174C34.8993 13.4654 35.1778 13.371 35.4426 13.2344C35.7076 13.0978 35.9537 12.9337 36.1813 12.7416C36.4087 12.5498 36.6072 12.3499 36.7772 12.1415C36.7701 12.2912 36.767 12.4328 36.767 12.566C36.767 12.6994 36.7635 12.844 36.7567 13.0002C36.4172 13.228 36.0963 13.5012 35.7942 13.8198C35.4918 14.1385 35.227 14.4784 34.9996 14.8394C34.7722 15.2004 34.5937 15.5663 34.465 15.937C34.3358 16.308 34.2729 16.6542 34.2763 16.9763C34.2797 17.2983 34.3595 17.5795 34.5156 17.8202C34.6719 18.0609 34.9264 18.2333 35.2796 18.3374C35.6465 18.448 35.9689 18.4511 36.2474 18.3471C36.5259 18.243 36.7685 18.0706 36.9757 17.83C37.1828 17.5893 37.3526 17.2983 37.4852 16.9568C37.6176 16.6153 37.7229 16.2591 37.8008 15.8884C37.879 15.5177 37.9282 15.1531 37.9485 14.7956C37.969 14.4377 37.969 14.1189 37.9485 13.8393C38.5325 13.6052 39.0113 13.3092 39.3848 12.9514C39.7582 12.5939 40.0672 12.2164 40.3117 11.8196C40.3865 11.722 40.412 11.6049 40.3883 11.4684C40.3644 11.3317 40.3067 11.2146 40.2151 11.1171Z" fill="#A5A5A5"/>
<path fill-rule="evenodd" clip-rule="evenodd" d="M53.0651 10.4927C53.0854 10.3432 53.1159 10.1854 53.1567 10.0195C53.1972 9.85362 53.2483 9.69259 53.3096 9.53649C53.3704 9.38039 53.4417 9.24547 53.5233 9.13158C53.6049 9.01783 53.6915 8.93651 53.7831 8.88762C53.8749 8.83897 53.9681 8.84379 54.0634 8.90221C54.1652 8.96089 54.2279 9.08442 54.2518 9.27294C54.2753 9.46186 54.2518 9.66337 54.1805 9.878C54.109 10.0928 53.9818 10.2943 53.7984 10.483C53.6152 10.6717 53.3672 10.7951 53.0548 10.8537C53.0411 10.7628 53.0446 10.6424 53.0651 10.4927ZM56.5946 10.8927C56.4825 10.8604 56.3756 10.857 56.2737 10.883C56.1719 10.909 56.1072 10.9773 56.0803 11.088C56.0256 11.2961 55.9392 11.5091 55.8203 11.727C55.7016 11.945 55.5555 12.1515 55.3825 12.3467C55.2094 12.5417 55.0138 12.7142 54.7967 12.8637C54.5793 13.0134 54.3519 13.1207 54.1142 13.1857C53.8763 13.2573 53.6794 13.2654 53.5233 13.2101C53.3672 13.155 53.2433 13.0605 53.1517 12.9272C53.0601 12.7939 52.9938 12.6329 52.953 12.4442C52.9122 12.2556 52.8882 12.0605 52.8816 11.8587C53.2686 11.8848 53.6133 11.8182 53.9157 11.6587C54.2177 11.4995 54.474 11.2879 54.6846 11.0245C54.8951 10.7611 55.0546 10.4651 55.1633 10.1366C55.2718 9.80819 55.3331 9.48129 55.3468 9.15597C55.3534 8.85023 55.306 8.59176 55.2041 8.38035C55.1023 8.16904 54.9646 8.00453 54.7914 7.88755C54.6185 7.77045 54.4198 7.70212 54.1956 7.68269C53.9718 7.66313 53.7439 7.69246 53.5131 7.77045C53.2346 7.86155 52.9988 8.00948 52.8053 8.21448C52.6116 8.41934 52.4503 8.65686 52.3213 8.92672C52.1923 9.19671 52.0905 9.48773 52.0157 9.79991C51.941 10.1122 51.8867 10.4196 51.8528 10.7221C51.8223 10.9936 51.8059 11.2531 51.8002 11.5037C51.7856 11.5355 51.7714 11.5661 51.7559 11.6001C51.6507 11.8312 51.5283 12.0573 51.3893 12.2783C51.2501 12.4995 51.0956 12.685 50.9258 12.8345C50.756 12.9842 50.5794 13.0361 50.396 12.9906C50.2875 12.9647 50.2281 12.8442 50.2178 12.6296C50.2078 12.4149 50.2194 12.1482 50.2534 11.8295C50.2875 11.5109 50.3265 11.1659 50.3707 10.7951C50.4147 10.4244 50.4368 10.07 50.4368 9.73169C50.4368 9.43894 50.3791 9.15772 50.2636 8.88762C50.1481 8.61787 49.9902 8.39334 49.7901 8.21448C49.5896 8.03546 49.3571 7.91675 49.0923 7.85833C48.8273 7.79967 48.5423 7.83877 48.2367 7.97531C47.9309 8.11198 47.6882 8.30383 47.5084 8.55104C47.3282 8.79835 47.1634 9.05844 47.0141 9.33163C46.9597 9.12341 46.8802 8.93007 46.7749 8.75108C46.6694 8.5722 46.5406 8.41612 46.3877 8.28267C46.2348 8.14948 46.0632 8.04539 45.8734 7.97049C45.6831 7.89583 45.4826 7.85833 45.2723 7.85833C45.0686 7.85833 44.8801 7.89583 44.7069 7.97049C44.5338 8.04539 44.3758 8.14118 44.2332 8.25829C44.0905 8.37551 43.9616 8.50709 43.846 8.65353C43.7307 8.79984 43.6287 8.94468 43.5407 9.08764C43.5268 8.91855 43.5115 8.77064 43.4947 8.64363C43.4778 8.51686 43.447 8.40955 43.4031 8.32179C43.3588 8.23391 43.2962 8.16731 43.2146 8.12175C43.133 8.07632 43.0177 8.05342 42.8685 8.05342C42.7935 8.05342 42.7188 8.06804 42.6442 8.09724C42.5693 8.12657 42.503 8.16731 42.4455 8.2193C42.3877 8.27154 42.3437 8.33478 42.3131 8.40955C42.2824 8.48431 42.2742 8.5706 42.2876 8.66815C42.2942 8.7398 42.3131 8.82585 42.3437 8.92672C42.3742 9.02762 42.4029 9.15945 42.4303 9.32184C42.4574 9.48451 42.4795 9.68131 42.4964 9.91218C42.5134 10.1432 42.5185 10.4261 42.5116 10.7611C42.5048 11.0962 42.4795 11.488 42.4353 11.9368C42.3911 12.3856 42.3213 12.906 42.2266 13.4979C42.2129 13.6345 42.2671 13.7452 42.3895 13.8297C42.5116 13.9141 42.6509 13.9629 42.8072 13.976C42.9633 13.989 43.1112 13.9629 43.2502 13.898C43.3894 13.8328 43.4694 13.7191 43.4896 13.5565C43.5099 13.2508 43.5491 12.9256 43.6068 12.5807C43.6644 12.2361 43.7358 11.8946 43.8207 11.5563C43.9055 11.2181 44.0021 10.8961 44.1111 10.5903C44.2195 10.2845 44.3403 10.0147 44.4727 9.78048C44.6051 9.54626 44.7427 9.35936 44.8851 9.21947C45.0278 9.0796 45.177 9.00966 45.3334 9.00966C45.5236 9.00966 45.6711 9.09248 45.7766 9.25835C45.8816 9.42433 45.9564 9.6375 46.0006 9.89746C46.0448 10.1578 46.0651 10.4425 46.0619 10.7513C46.0582 11.0603 46.0448 11.3579 46.0211 11.644C45.9972 11.9304 45.97 12.1856 45.9395 12.41C45.909 12.6345 45.8869 12.7891 45.8734 12.8735C45.8734 13.0232 45.9327 13.1417 46.0514 13.2296C46.1703 13.3174 46.3027 13.3695 46.4488 13.3857C46.5949 13.4021 46.7323 13.3759 46.8615 13.3076C46.9905 13.2393 47.065 13.124 47.0855 12.9612C47.1534 12.493 47.2468 12.0231 47.3655 11.5515C47.4843 11.0798 47.6203 10.6571 47.7732 10.283C47.9259 9.90896 48.0956 9.60322 48.2825 9.3658C48.4691 9.1285 48.6678 9.00966 48.8784 9.00966C48.9868 9.00966 49.0702 9.08133 49.1279 9.22431C49.1855 9.3674 49.2145 9.56249 49.2145 9.80968C49.2145 9.99189 49.1992 10.1789 49.1687 10.3708C49.1381 10.5627 49.1026 10.7611 49.0616 10.966C49.021 11.1709 48.9852 11.3806 48.9547 11.5953C48.9242 11.8101 48.9089 12.0343 48.9089 12.2685C48.9089 12.4312 48.9258 12.6198 48.9597 12.8345C48.9937 13.049 49.0582 13.2525 49.1532 13.4443C49.2484 13.6362 49.379 13.7988 49.5456 13.9321C49.7119 14.0654 49.9241 14.1321 50.182 14.1321C50.5692 14.1321 50.9121 14.0524 51.2111 13.8931C51.5098 13.7338 51.7662 13.5257 51.9802 13.2687C51.9911 13.2552 52.0014 13.2409 52.0121 13.2275C52.0285 13.2655 52.0431 13.3057 52.0615 13.3419C52.2076 13.6281 52.4063 13.8492 52.6576 14.0054C52.9085 14.1615 53.2041 14.2476 53.5438 14.264C53.8834 14.2801 54.2532 14.2199 54.6543 14.0834C54.9528 13.9793 55.2125 13.8492 55.4333 13.6931C55.6539 13.537 55.8526 13.3467 56.0292 13.1223C56.2058 12.8979 56.3669 12.6393 56.5132 12.3467C56.6593 12.0538 56.8067 11.7189 56.9562 11.3415C56.9833 11.2377 56.9578 11.1449 56.8799 11.0635C56.8017 10.9823 56.7067 10.9254 56.5946 10.8927Z" fill="#A5A5A5"/>
<path fill-rule="evenodd" clip-rule="evenodd" d="M62.131 9.80445C62.0968 9.99644 62.051 10.208 61.9934 10.4387C61.9355 10.6697 61.8626 10.9087 61.7744 11.1559C61.686 11.4031 61.5775 11.6259 61.4485 11.8243C61.3193 12.0228 61.1717 12.1804 61.0053 12.2975C60.8387 12.4146 60.6471 12.4634 60.4297 12.4438C60.321 12.4309 60.2378 12.3594 60.1802 12.2291C60.1223 12.0992 60.0918 11.9332 60.0884 11.7315C60.0849 11.53 60.1036 11.3088 60.1444 11.068C60.1852 10.8275 60.2481 10.5916 60.3331 10.3606C60.4179 10.1299 60.5216 9.91672 60.6435 9.72152C60.7658 9.52643 60.9067 9.37517 61.0664 9.26785C61.2259 9.16051 61.4009 9.11026 61.591 9.11657C61.781 9.12314 61.9847 9.21412 62.2023 9.38978C62.1884 9.47444 62.165 9.61271 62.131 9.80445ZM65.7521 10.5509C65.6469 10.4989 65.5382 10.4876 65.4263 10.5168C65.3142 10.5461 65.2342 10.6453 65.1868 10.8144C65.1597 10.9966 65.0986 11.2111 65.0036 11.4583C64.9083 11.7055 64.7912 11.9399 64.6522 12.1608C64.5127 12.382 64.3532 12.5658 64.1732 12.7122C63.9932 12.8586 63.8015 12.9253 63.5978 12.9121C63.4278 12.8992 63.3089 12.8163 63.2412 12.6634C63.1731 12.5105 63.1375 12.3188 63.1343 12.0877C63.1307 11.8569 63.1546 11.5967 63.2054 11.3072C63.2565 11.0178 63.3175 10.73 63.3889 10.4436C63.4602 10.1575 63.5331 9.88255 63.6081 9.61913C63.6826 9.35574 63.7437 9.13291 63.7913 8.95083C63.8458 8.78818 63.8287 8.65002 63.7402 8.53602C63.6521 8.4224 63.5418 8.34093 63.4094 8.29217C63.2768 8.2434 63.1428 8.23039 63.0067 8.25317C62.8709 8.27595 62.783 8.34588 62.7419 8.46285C62.3413 8.13111 61.956 7.95225 61.5859 7.92625C61.2156 7.90027 60.8743 7.97836 60.5621 8.16047C60.2497 8.34255 59.9731 8.60597 59.732 8.95083C59.4909 9.29569 59.2956 9.67125 59.1461 10.0778C58.9969 10.4843 58.9034 10.8991 58.8661 11.3218C58.8287 11.7447 58.8574 12.1301 58.9527 12.4781C59.0479 12.826 59.2156 13.1107 59.4569 13.3317C59.6978 13.5529 60.0257 13.6636 60.44 13.6636C60.6232 13.6636 60.7998 13.6278 60.9696 13.5562C61.1393 13.4846 61.2956 13.4 61.4383 13.3025C61.5807 13.205 61.7065 13.1025 61.8152 12.9951C61.9236 12.8878 62.0086 12.7984 62.0697 12.7268C62.1171 12.961 62.1955 13.1595 62.304 13.322C62.4127 13.4846 62.5366 13.6181 62.6759 13.722C62.8149 13.826 62.9612 13.9025 63.1138 13.9514C63.2667 14.0001 63.4144 14.0245 63.557 14.0245C63.8763 14.0245 64.1748 13.9204 64.4535 13.7122C64.7317 13.5043 64.9815 13.2488 65.2023 12.9464C65.4229 12.6438 65.6045 12.3252 65.7471 11.9901C65.8898 11.6552 65.9848 11.3576 66.0322 11.0973C66.0798 10.9997 66.0714 10.8974 66.0069 10.79C65.9422 10.6827 65.8574 10.6031 65.7521 10.5509Z" fill="#A5A5A5"/>
<path fill-rule="evenodd" clip-rule="evenodd" d="M84.0881 15.9375C84.0305 16.1586 83.9404 16.3458 83.8183 16.4985C83.6962 16.6514 83.5433 16.7311 83.3598 16.7377C83.2445 16.7441 83.1561 16.6855 83.095 16.562C83.034 16.4384 82.9916 16.279 82.9677 16.0839C82.9437 15.8887 82.9337 15.6708 82.9371 15.4301C82.9405 15.1895 82.9508 14.9521 82.9677 14.7179C82.9845 14.4838 83.005 14.2657 83.029 14.0641C83.0524 13.8624 83.0711 13.7065 83.0848 13.5959C83.3156 13.6219 83.5077 13.7177 83.6604 13.8837C83.8133 14.0496 83.9302 14.2462 84.0118 14.474C84.0934 14.7016 84.1407 14.9472 84.1544 15.2106C84.1679 15.4741 84.1458 15.7163 84.0881 15.9375ZM80.4007 15.9375C80.343 16.1586 80.253 16.3458 80.1306 16.4985C80.0085 16.6514 79.8558 16.7311 79.6724 16.7377C79.5569 16.7441 79.4687 16.6855 79.4076 16.562C79.3463 16.4384 79.3039 16.279 79.2802 16.0839C79.2563 15.8887 79.246 15.6708 79.2497 15.4301C79.2529 15.1895 79.2631 14.9521 79.2802 14.7179C79.2971 14.4838 79.3174 14.2657 79.3413 14.0641C79.365 13.8624 79.3837 13.7065 79.3974 13.5959C79.6282 13.6219 79.8203 13.7177 79.9727 13.8837C80.1256 14.0496 80.2428 14.2462 80.3243 14.474C80.4059 14.7016 80.4533 14.9472 80.467 15.2106C80.4804 15.4741 80.4583 15.7163 80.4007 15.9375ZM76.6166 10.3955C76.6096 10.5515 76.5943 10.6898 76.5706 10.8101C76.5467 10.9306 76.5145 11.0069 76.4738 11.0395C76.399 11.0004 76.3072 10.8997 76.1987 10.7369C76.09 10.5744 76.0052 10.3904 75.9439 10.1856C75.8831 9.98072 75.8642 9.77921 75.8881 9.58066C75.9116 9.38234 76.0189 9.228 76.209 9.1172C76.2835 9.0782 76.348 9.09281 76.4024 9.16114C76.4569 9.22948 76.5009 9.32863 76.535 9.45873C76.5688 9.58894 76.5925 9.73849 76.6061 9.90758C76.6198 10.0768 76.623 10.2393 76.6166 10.3955ZM75.7149 12.3421C75.6097 12.4492 75.4923 12.542 75.3636 12.6201C75.2344 12.6982 75.102 12.7567 74.9662 12.7957C74.8303 12.8348 74.708 12.8445 74.5995 12.8249C74.2939 12.7665 74.0594 12.6395 73.8967 12.4444C73.7336 12.2493 73.6299 12.0201 73.5859 11.7567C73.5417 11.4931 73.5467 11.2118 73.6012 10.9126C73.6554 10.6134 73.747 10.3354 73.8762 10.0784C74.0052 9.82142 74.1615 9.60022 74.3447 9.4149C74.5282 9.22949 74.7282 9.11411 74.9459 9.06843C74.8643 9.40017 74.8372 9.74344 74.8643 10.0978C74.8914 10.4524 74.9798 10.7857 75.1293 11.0979C75.2241 11.2868 75.338 11.459 75.4704 11.6151C75.6028 11.7713 75.7642 11.9046 75.9544 12.0151C75.9 12.1258 75.82 12.2347 75.7149 12.3421ZM86.9864 10.4931C87.0067 10.3435 87.0372 10.1856 87.078 10.0197C87.1186 9.85398 87.1696 9.69292 87.2307 9.53682C87.2918 9.38061 87.3631 9.2457 87.4447 9.13194C87.5262 9.01818 87.6128 8.93671 87.7044 8.88795C87.796 8.83919 87.8895 8.84401 87.9845 8.90256C88.0864 8.96123 88.1492 9.08478 88.1729 9.2733C88.1966 9.46206 88.1729 9.66359 88.1016 9.87836C88.0303 10.093 87.9031 10.2947 87.7197 10.4832C87.5365 10.6721 87.2886 10.7955 86.9762 10.854C86.9625 10.763 86.9659 10.6427 86.9864 10.4931ZM91.0915 10.4931C91.1118 10.3435 91.1424 10.1856 91.1831 10.0197C91.2239 9.85398 91.275 9.69292 91.336 9.53682C91.3971 9.38061 91.4684 9.2457 91.5498 9.13194C91.6314 9.01818 91.718 8.93671 91.8096 8.88795C91.9014 8.83919 91.9948 8.84401 92.0898 8.90256C92.1917 8.96123 92.2544 9.08478 92.2783 9.2733C92.302 9.46206 92.2783 9.66359 92.207 9.87836C92.1356 10.093 92.0083 10.2947 91.8248 10.4832C91.6416 10.6721 91.3937 10.7955 91.0813 10.854C91.0678 10.763 91.071 10.6427 91.0915 10.4931ZM94.9064 11.0639C94.8282 10.9827 94.7332 10.9257 94.6213 10.893C94.5092 10.8606 94.4023 10.8574 94.3002 10.8834C94.1984 10.9094 94.1339 10.9777 94.1067 11.0882C94.0523 11.2964 93.9657 11.5095 93.847 11.7272C93.728 11.9453 93.5822 12.1518 93.409 12.3469C93.2358 12.542 93.0405 12.7145 92.8234 12.8641C92.6057 13.0137 92.3783 13.121 92.1409 13.1859C91.903 13.2577 91.7061 13.2657 91.5498 13.2104C91.3937 13.1552 91.2697 13.0609 91.1781 12.9276C91.0865 12.7941 91.0202 12.6332 90.9794 12.4444C90.9389 12.2559 90.9149 12.0608 90.9081 11.859C91.2953 11.8852 91.64 11.8186 91.9422 11.659C92.2441 11.4997 92.5007 11.2881 92.7113 11.0247C92.9216 10.7614 93.0813 10.4655 93.19 10.137C93.2985 9.80841 93.3596 9.48162 93.3735 9.15632C93.3798 8.85058 93.3324 8.59198 93.2306 8.38055C93.1289 8.16927 92.9913 8.00486 92.8181 7.88789C92.6449 7.77067 92.4465 7.70245 92.2222 7.68291C91.9982 7.66335 91.7706 7.69282 91.5398 7.77067C91.2613 7.86191 91.0255 8.00981 90.832 8.21468C90.6383 8.41967 90.477 8.65722 90.348 8.92694C90.2188 9.19704 90.1169 9.48793 90.0422 9.80024C89.9674 10.1124 89.9132 10.4199 89.8795 10.7223C89.8464 11.0158 89.8284 11.2967 89.8243 11.5655C89.7986 11.6191 89.7712 11.673 89.7416 11.7272C89.6229 11.9453 89.4768 12.1518 89.3037 12.3469C89.1307 12.542 88.9352 12.7145 88.718 12.8641C88.5006 13.0137 88.2732 13.121 88.0355 13.1859C87.7976 13.2577 87.6008 13.2657 87.4447 13.2104C87.2886 13.1552 87.1646 13.0609 87.073 12.9276C86.9814 12.7941 86.9151 12.6332 86.8743 12.4444C86.8335 12.2559 86.8096 12.0608 86.803 11.859C87.1899 11.8852 87.5347 11.8186 87.8368 11.659C88.139 11.4997 88.3953 11.2881 88.6059 11.0247C88.8165 10.7614 88.976 10.4655 89.0847 10.137C89.1931 9.80841 89.2544 9.48162 89.2681 9.15632C89.2747 8.85058 89.2273 8.59198 89.1255 8.38055C89.0236 8.16927 88.886 8.00486 88.7128 7.88789C88.5396 7.77067 88.3411 7.70245 88.1169 7.68291C87.8929 7.66335 87.6652 7.69282 87.4344 7.77067C87.156 7.86191 86.9201 8.00981 86.7266 8.21468C86.5329 8.41967 86.3716 8.65722 86.2426 8.92694C86.1137 9.19704 86.0118 9.48793 85.9371 9.80024C85.8623 10.1124 85.8081 10.4199 85.7741 10.7223C85.755 10.8929 85.742 11.0583 85.7324 11.2207C85.6668 11.2742 85.603 11.328 85.5346 11.3809C85.3006 11.5631 85.0543 11.7272 84.7963 11.8736C84.5379 12.0201 84.2697 12.1404 83.9915 12.2347C83.7128 12.329 83.4277 12.386 83.1358 12.4054L83.7675 5.92664C83.8081 5.78999 83.7878 5.66979 83.7064 5.5657C83.6248 5.46158 83.5193 5.39003 83.3904 5.35104C83.2614 5.31192 83.1238 5.31527 82.9779 5.3607C82.8318 5.40637 82.7113 5.51047 82.6163 5.67288C82.5687 5.9202 82.5194 6.25838 82.4686 6.68767C82.4176 7.11695 82.3668 7.58537 82.3157 8.09275C82.2649 8.60015 82.2139 9.12377 82.163 9.66359C82.112 10.2037 82.0678 10.7077 82.0307 11.176C82.0288 11.1968 82.0275 11.2156 82.0259 11.2362C81.9664 11.2844 81.9087 11.3331 81.8472 11.3809C81.613 11.5631 81.3666 11.7272 81.1087 11.8736C80.8505 12.0201 80.5823 12.1404 80.3041 12.2347C80.0254 12.329 79.7401 12.386 79.4482 12.4054L80.0798 5.92664C80.1206 5.78999 80.1003 5.66979 80.0188 5.5657C79.9372 5.46158 79.8319 5.39003 79.7029 5.35104C79.574 5.31192 79.4363 5.31527 79.2903 5.3607C79.1442 5.40637 79.0239 5.51047 78.9288 5.67288C78.8812 5.9202 78.832 6.25838 78.7812 6.68767C78.7301 7.11695 78.6791 7.58537 78.6283 8.09275C78.5772 8.60015 78.5264 9.12377 78.4754 9.66359C78.4246 10.2037 78.3804 10.7077 78.343 11.176C78.3423 11.1854 78.3416 11.194 78.3409 11.2034C78.2341 11.2508 78.1179 11.2924 77.9916 11.3273C77.8624 11.3632 77.7166 11.3843 77.5536 11.3908C77.5808 11.2735 77.6026 11.1434 77.6197 11.0004C77.6366 10.8574 77.6505 10.7077 77.6605 10.5515C77.6708 10.3955 77.674 10.2393 77.6708 10.0832C77.6671 9.92701 77.6587 9.78403 77.6452 9.6538C77.6113 9.3743 77.5486 9.10916 77.457 8.85862C77.3652 8.60832 77.2412 8.39862 77.0851 8.22929C76.9288 8.0602 76.7335 7.94633 76.4993 7.88789C76.265 7.82935 75.9916 7.84878 75.6794 7.94633C75.2173 7.88789 74.8014 7.92861 74.4313 8.06837C74.0613 8.20837 73.7404 8.4115 73.4688 8.67814C73.1972 8.94502 72.9748 9.25869 72.8016 9.61978C72.6284 9.98072 72.5129 10.3516 72.4552 10.732C72.4306 10.8933 72.4188 11.0538 72.4151 11.214C72.3101 11.4202 72.195 11.6005 72.0681 11.7517C71.8883 11.9664 71.7014 12.142 71.508 12.2786C71.3143 12.4152 71.1224 12.5193 70.9324 12.5909C70.7421 12.6625 70.5723 12.7113 70.4231 12.7372C70.2465 12.7697 70.0767 12.7731 69.9138 12.7469C69.7508 12.7211 69.6011 12.6462 69.4655 12.5225C69.3568 12.4315 69.2737 12.2851 69.216 12.0835C69.1581 11.8818 69.1244 11.6527 69.1142 11.3956C69.1039 11.1386 69.1142 10.8703 69.1447 10.5906C69.1752 10.311 69.2276 10.0458 69.3026 9.79542C69.3771 9.54499 69.4721 9.32059 69.5877 9.12204C69.703 8.92386 69.8388 8.78223 69.9951 8.6977C70.0833 8.71082 70.138 8.76107 70.1583 8.84883C70.1786 8.93671 70.1836 9.04083 70.1735 9.16114C70.1633 9.2816 70.148 9.40513 70.1277 9.53187C70.1072 9.65877 70.097 9.7646 70.097 9.84902C70.1312 10.0247 70.1972 10.1613 70.2957 10.2589C70.3941 10.3564 70.5046 10.4135 70.6268 10.4296C70.7489 10.4459 70.8695 10.4183 70.9884 10.3466C71.1071 10.2752 71.204 10.1613 71.2787 10.0051C71.2856 10.0117 71.2956 10.0149 71.3093 10.0149L71.4519 8.77579C71.4927 8.60659 71.4653 8.45706 71.3703 8.32697C71.2753 8.19687 71.1497 8.12197 70.9934 8.10254C70.7965 7.82935 70.5299 7.68464 70.1938 7.6683C69.8577 7.65209 69.5129 7.75779 69.16 7.98543C68.9426 8.13522 68.7507 8.34156 68.5844 8.60497C68.4178 8.86852 68.2822 9.16114 68.1769 9.48311C68.0714 9.80508 67.9969 10.1451 67.9529 10.5028C67.9087 10.8606 67.9001 11.2087 67.9272 11.5467C67.9543 11.8852 68.0174 12.2039 68.1158 12.503C68.2141 12.8023 68.3517 13.0527 68.5285 13.2542C68.6778 13.4299 68.8473 13.5585 69.0376 13.6398C69.2276 13.7211 69.4263 13.7714 69.6335 13.791C69.8406 13.8104 70.0462 13.8022 70.2499 13.7666C70.4536 13.7309 70.6473 13.6805 70.8305 13.6153C71.0682 13.5309 71.3127 13.4234 71.564 13.2933C71.8151 13.1634 72.0562 13.0071 72.2873 12.8249C72.4085 12.7291 72.5256 12.6246 72.6387 12.5126C72.6902 12.6349 72.7476 12.7533 72.8169 12.8641C73.0003 13.1567 73.248 13.3942 73.5604 13.5763C73.8726 13.7584 74.2566 13.846 74.7116 13.8397C75.2006 13.8332 75.652 13.7146 76.0663 13.4836C76.4806 13.2529 76.8201 12.9127 77.0851 12.464C77.4819 12.464 77.872 12.4013 78.2557 12.2769C78.2525 12.3163 78.2493 12.3578 78.2464 12.3958C78.2193 12.7405 78.2054 12.9746 78.2054 13.0982C78.1987 13.3129 78.1837 13.5779 78.1598 13.8933C78.1359 14.2089 78.1206 14.5406 78.114 14.8886C78.1071 15.2365 78.1206 15.5878 78.1545 15.9425C78.1887 16.2969 78.2598 16.6189 78.3685 16.9085C78.477 17.1978 78.6315 17.4434 78.832 17.6451C79.0323 17.8467 79.2955 17.9671 79.6216 18.0061C79.9677 18.0515 80.2665 17.993 80.5178 17.8304C80.7689 17.6678 80.9729 17.4451 81.1292 17.1621C81.2853 16.879 81.3956 16.5522 81.4601 16.1815C81.5245 15.8108 81.5432 15.4383 81.5161 15.0642C81.489 14.6901 81.4177 14.3373 81.3021 14.0057C81.1866 13.6739 81.0271 13.4007 80.8234 13.1859C80.9458 13.1536 81.0916 13.0918 81.2616 13.0006C81.4311 12.9096 81.6061 12.8071 81.7861 12.6932C81.8304 12.6653 81.8739 12.6358 81.9181 12.6071C81.9014 12.8376 81.893 13.002 81.893 13.0982C81.8864 13.3129 81.8711 13.5779 81.8472 13.8933C81.8235 14.2089 81.8082 14.5406 81.8014 14.8886C81.7948 15.2365 81.8082 15.5878 81.8422 15.9425C81.8762 16.2969 81.9475 16.6189 82.0559 16.9085C82.1646 17.1978 82.3191 17.4434 82.5194 17.6451C82.7197 17.8467 82.9829 17.9671 83.309 18.0061C83.6551 18.0515 83.9541 17.993 84.2055 17.8304C84.4566 17.6678 84.6603 17.4451 84.8166 17.1621C84.9727 16.879 85.083 16.5522 85.1477 16.1815C85.2122 15.8108 85.2307 15.4383 85.2038 15.0642C85.1764 14.6901 85.1051 14.3373 84.9898 14.0057C84.8743 13.6739 84.7148 13.4007 84.5108 13.1859C84.6332 13.1536 84.7792 13.0918 84.949 13.0006C85.1188 12.9096 85.2936 12.8071 85.4736 12.6932C85.5672 12.6341 85.6602 12.573 85.7527 12.5103C85.7878 12.8284 85.863 13.1074 85.9829 13.3421C86.1289 13.6284 86.3274 13.8495 86.5788 14.0057C86.8299 14.1617 87.1254 14.248 87.4652 14.2642C87.8047 14.2803 88.1745 14.2202 88.5756 14.0836C88.8741 13.9796 89.1339 13.8495 89.3547 13.6934C89.5753 13.5372 89.774 13.3469 89.9506 13.1227C89.9608 13.1096 89.9704 13.0955 89.9804 13.0824C90.0119 13.1735 90.0467 13.261 90.0882 13.3421C90.2343 13.6284 90.4328 13.8495 90.6841 14.0057C90.9352 14.1617 91.2308 14.248 91.5703 14.2642C91.9098 14.2803 92.2799 14.2202 92.6807 14.0836C92.9795 13.9796 93.2392 13.8495 93.46 13.6934C93.6806 13.5372 93.8791 13.3469 94.0559 13.1227C94.2323 12.8981 94.3934 12.6395 94.5397 12.3469C94.6858 12.0541 94.8332 11.7193 94.9829 11.3419C95.01 11.2379 94.9843 11.1452 94.9064 11.0639Z" fill="#A5A5A5"/>
</g>
<defs>
<clipPath id="clip0_2949_829">
<rect width="95" height="20" fill="white"/>
</clipPath>
</defs>
</svg>
