<svg width="16" height="16" viewBox="0 0 16 16" fill="none" xmlns="http://www.w3.org/2000/svg">
<path d="M3.98509 6.94565C4.00849 6.97681 4.05551 6.88292 4.10236 6.88292H4.11786C4.16495 6.88292 4.2118 6.96898 4.22759 6.90666C4.67405 5.19279 6.22417 4.0176 8.0014 4.0176C8.10306 4.0176 8.2284 4.05559 8.33807 4.05559H14.7655C14.8127 4.05559 14.8595 4.06873 14.891 4.01383C14.9142 3.98267 14.9142 3.95375 14.891 3.89885C14.1861 2.73284 13.192 1.76417 12.0255 1.07541C10.804 0.371094 9.41056 0 8.00134 0C5.55849 0 3.27262 1.10545 1.74578 3.01511C1.71443 3.06206 1.71443 3.05152 1.738 3.09834L3.98509 6.94565Z" fill="#A5A5A5"/>
<path d="M5.0108 8.00214C5.0108 9.64562 6.35725 10.9916 8.00148 10.9916C9.65325 10.9916 10.9922 9.64562 10.9922 8.00214C10.9922 6.35089 9.65319 5.00476 8.00148 5.00476C6.35719 5.00476 5.0108 6.35089 5.0108 8.00214Z" fill="#A5A5A5"/>
<path d="M9.1836 11.7976C9.14429 11.7581 9.09744 11.7352 9.0503 11.7508C8.71374 11.8445 8.36151 11.8916 8.00145 11.8916C6.498 11.8916 5.11242 11.015 4.47049 9.64566L1.25257 4.0737C1.23982 4.05669 1.22329 4.04289 1.20427 4.03338C1.18525 4.02387 1.16428 4.01892 1.14302 4.01892C1.09605 4.01892 1.0492 4.04242 1.02563 4.0737C0.360303 5.2711 0 6.62471 0 8.00212C0 9.92745 0.696856 11.782 1.95739 13.2453C3.20984 14.6852 4.92461 15.6239 6.81128 15.9057C6.81128 15.9136 6.82678 15.9136 6.82678 15.9136C6.87392 15.9136 6.92089 15.8904 6.94446 15.8436L9.19114 11.9387C9.21454 11.8915 9.21454 11.8444 9.1836 11.7976V11.7976Z" fill="#A5A5A5"/>
<path d="M15.3373 4.93909H10.8121C10.765 4.93909 10.7178 4.9994 10.6947 5.0543C10.6788 5.10137 10.6947 5.1707 10.7259 5.2094C11.4774 5.94493 11.86 6.94635 11.86 7.9949C11.86 8.79317 11.7124 9.55957 11.1231 10.2168V10.2246L7.92977 15.7965C7.90662 15.8437 7.92665 15.8905 7.94981 15.9295C7.98134 15.9763 8.03821 16 8.08523 16C10.1989 15.9763 12.1851 15.1312 13.6881 13.621C15.1758 12.1263 16 10.1153 16 8.00215C16 6.99259 15.8133 5.97762 15.4533 5.0543C15.43 4.9994 15.3844 4.93909 15.3373 4.93909V4.93909Z" fill="#A5A5A5"/>
</svg>
