<svg width="16" height="16" viewBox="0 0 16 16" fill="none" xmlns="http://www.w3.org/2000/svg">
<g clip-path="url(#clip0_2949_596)">
<path d="M8.00002 0.559998C3.80002 0.559998 0.400024 3.96 0.400024 8.16C0.400024 11.52 2.60002 14.36 5.60002 15.36C6.00002 15.44 6.12002 15.2 6.12002 15V13.72C4.00002 14.16 3.56002 12.68 3.56002 12.68C3.20002 11.84 2.72002 11.6 2.72002 11.6C2.04002 11.12 2.76002 11.16 2.76002 11.16C3.52002 11.2 3.92002 11.96 3.92002 11.96C4.60002 13.12 5.72002 12.8 6.12002 12.6C6.20002 12.12 6.40002 11.76 6.60002 11.56C4.92002 11.36 3.12002 10.72 3.12002 7.8C3.12002 6.96 3.40002 6.32 3.92002 5.76C3.84002 5.56 3.60002 4.8 4.00002 3.76C4.00002 3.76 4.64002 3.56 6.08002 4.56C6.68002 4.4 7.32002 4.28 8.00002 4.28C8.64002 4.28 9.32002 4.36 9.88002 4.56C11.32 3.6 11.96 3.76 11.96 3.76C12.36 4.8 12.12 5.6 12.04 5.76C12.52 6.28 12.84 6.96 12.84 7.8C12.84 10.72 11.04 11.36 9.36003 11.56C9.64003 11.8 9.88002 12.24 9.88002 12.96V15.04C9.88002 15.24 10.04 15.48 10.4 15.4C13.4 14.36 15.6 11.52 15.6 8.16C15.6 3.96 12.2 0.559998 8.00002 0.559998V0.559998Z" fill="#A5A5A5"/>
</g>
<defs>
<clipPath id="clip0_2949_596">
<rect width="16" height="16" fill="white"/>
</clipPath>
</defs>
</svg>
