<svg width="18" height="18" viewBox="0 0 18 18" xmlns="http://www.w3.org/2000/svg">
    <path fill-rule="evenodd" clip-rule="evenodd" d="M10.5 3.5C10.5019 3.69629 10.4646 3.89102 10.39 4.07292C10.3155 4.25482 10.2053 4.42029 10.0659 4.55977C9.92638 4.69925 9.76038 4.80997 9.57744 4.88553C9.39449 4.96109 9.19824 5 9.00003 5C8.80181 5 8.60558 4.96109 8.42264 4.88553C8.2397 4.80997 8.07367 4.69925 7.9342 4.55977C7.79472 4.42029 7.68455 4.25482 7.61004 4.07292C7.53552 3.89102 7.49815 3.69629 7.50007 3.5C7.49815 3.30371 7.53552 3.10898 7.61004 2.92708C7.68455 2.74518 7.79472 2.57971 7.9342 2.44023C8.07367 2.30075 8.2397 2.19003 8.42264 2.11447C8.60558 2.03891 8.80181 2 9.00003 2C9.19824 2 9.39449 2.03891 9.57744 2.11447C9.76038 2.19003 9.92638 2.30075 10.0659 2.44023C10.2053 2.57971 10.3155 2.74518 10.39 2.92708C10.4646 3.10898 10.5019 3.30371 10.5 3.5V3.5Z" fill="#616161"/>
    <path fill-rule="evenodd" clip-rule="evenodd" d="M10.5 9C10.5019 9.19629 10.4646 9.39102 10.39 9.57292C10.3155 9.75482 10.2053 9.92029 10.0659 10.0598C9.92638 10.1992 9.76038 10.31 9.57744 10.3855C9.39449 10.4611 9.19824 10.5 9.00003 10.5C8.80181 10.5 8.60558 10.4611 8.42264 10.3855C8.2397 10.31 8.07367 10.1992 7.9342 10.0598C7.79472 9.92029 7.68455 9.75482 7.61004 9.57292C7.53552 9.39102 7.49815 9.19629 7.50007 9C7.49815 8.80371 7.53552 8.60898 7.61004 8.42708C7.68455 8.24518 7.79472 8.07971 7.9342 7.94023C8.07367 7.80075 8.2397 7.69003 8.42264 7.61447C8.60558 7.53891 8.80181 7.5 9.00003 7.5C9.19824 7.5 9.39449 7.53891 9.57744 7.61447C9.76038 7.69003 9.92638 7.80075 10.0659 7.94023C10.2053 8.07971 10.3155 8.24518 10.39 8.42708C10.4646 8.60898 10.5019 8.80371 10.5 9V9Z" fill="#616161"/>
    <path fill-rule="evenodd" clip-rule="evenodd" d="M10.5 14.5C10.5019 14.6963 10.4646 14.891 10.39 15.0729C10.3155 15.2548 10.2053 15.4203 10.0659 15.5598C9.92638 15.6992 9.76038 15.81 9.57744 15.8855C9.39449 15.9611 9.19824 16 9.00003 16C8.80181 16 8.60558 15.9611 8.42264 15.8855C8.2397 15.81 8.07367 15.6992 7.9342 15.5598C7.79472 15.4203 7.68455 15.2548 7.61004 15.0729C7.53552 14.891 7.49815 14.6963 7.50007 14.5C7.49815 14.3037 7.53552 14.109 7.61004 13.9271C7.68455 13.7452 7.79472 13.5797 7.9342 13.4402C8.07367 13.3007 8.2397 13.19 8.42264 13.1145C8.60558 13.0389 8.80181 13 9.00003 13C9.19824 13 9.39449 13.0389 9.57744 13.1145C9.76038 13.19 9.92638 13.3007 10.0659 13.4402C10.2053 13.5797 10.3155 13.7452 10.39 13.9271C10.4646 14.109 10.5019 14.3037 10.5 14.5V14.5Z" fill="#616161"/>
</svg>
